P3
# Created by GIMP version 2.10.8 PNM plug-in
15 15
255
0
0
0
0
0
0
0
0
0
0
0
0
100
0
0
100
0
0
100
0
0
99
0
0
100
0
0
100
0
0
100
0
0
0
0
0
0
0
0
0
0
0
0
0
0
0
0
0
0
0
0
0
0
0
0
0
0
100
0
0
100
0
0
100
0
0
100
240
240
100
0
0
100
0
0
100
0
0
0
0
0
0
0
0
0
0
0
0
0
0
0
0
0
0
0
0
0
0
0
0
0
0
100
0
0
100
0
0
100
0
0
100
0
0
100
0
0
100
0
0
100
0
0
0
0
0
0
0
0
0
0
0
0
0
0
0
0
0
0
0
0
0
0
0
0
0
0
100
0
0
100
0
0
100
0
0
100
0
0
100
0
0
100
0
0
100
0
0
0
0
0
0
0
0
0
0
0
0
0
0
0
0
0
0
0
0
0
0
0
0
0
0
100
0
0
100
0
0
100
0
0
100
0
0
100
0
0
100
0
0
0
0
50
0
0
0
0
0
0
0
0
0
0
0
0
0
0
0
0
0
0
0
0
0
0
0
0
100
0
0
100
0
0
100
0
0
100
0
0
100
0
0
100
0
0
100
0
0
0
0
0
0
0
0
0
0
0
0
0
0
0
0
0
0
0
0
0
0
0
0
0
0
100
0
0
100
0
0
100
0
0
100
0
0
100
0
0
100
0
0
100
0
0
0
0
0
0
0
0
0
0
0
0
0
0
0
0
0
0
0
0
0
0
0
0
0
0
100
0
0
100
0
0
100
0
0
100
0
0
100
0
0
100
0
0
100
0
0
0
0
0
0
0
0
0
0
0
0
0
0
0
0
0
0
0
0
0
0
0
0
0
0
100
0
0
100
0
0
100
0
0
100
0
0
100
0
0
100
0
0
100
0
0
0
0
0
0
0
0
0
0
0
0
0
0
0
0
0
0
0
0
0
0
0
0
0
0
0
0
50
100
0
0
100
0
0
100
0
0
100
0
0
100
0
0
100
0
0
0
0
0
0
0
0
0
0
0
0
0
0
0
0
0
0
0
0
0
0
0
0
0
0
100
0
0
100
0
0
100
0
0
100
0
0
100
0
0
100
0
0
100
0
0
0
0
0
0
0
0
0
0
0
0
0
0
0
0
0
0
0
0
0
0
0
0
0
0
100
0
0
100
0
0
100
0
0
100
0
0
100
0
0
100
0
0
100
0
0
0
0
0
0
0
0
0
0
0
0
0
0
0
0
0
0
0
0
0
0
0
0
0
0
100
0
0
100
0
0
100
0
0
100
0
0
100
0
0
100
0
0
100
0
0
0
0
0
0
0
0
0
0
0
0
0
0
0
0
0
0
0
0
0
0
0
0
0
0
100
0
0
100
0
0
100
0
0
100
253
253
100
0
0
100
0
0
100
0
0
0
0
0
0
0
0
0
0
0
0
0
0
0
0
0
0
0
0
0
0
0
0
0
0
100
0
0
100
0
0
100
0
0
100
0
0
100
0
0
100
0
0
100
0
0
0
0
0
0
0
0
0
0
0
0
0
0
